{"glyphs":{":":{"x_min":0,"x_max":198,"ha":198,"o":"m 72 405 q 72 429 89 446 q 106 463 130 463 q 154 463 171 446 q 188 429 188 405 q 188 381 171 364 q 154 347 130 347 q 106 347 89 364 q 72 381 72 405 z m 16 44 q 16 68 33 85 q 50 102 74 102 q 98 102 115 85 q 132 68 132 44 q 132 20 115 3 q 98 -14 74 -14 q 50 -14 33 3 q 16 20 16 44 z"},"$":{"x_min":0,"x_max":500,"ha":500,"o":"m 483 604 l 470 514 q 409 553 340 567 l 310 353 q 462 273 462 167 q 462 99 407 48 q 353 -3 259 -9 l 245 -110 l 171 -110 l 185 -9 q 98 3 40 45 l 54 143 q 116 101 198 79 l 227 293 q 147 337 112 380 q 77 423 77 478 q 77 546 132 595 q 187 645 278 651 l 283 691 l 357 691 l 352 651 q 420 643 483 604 z m 242 395 l 266 570 q 219 562 193 541 q 167 519 167 489 q 167 458 186 438 q 204 417 242 395 z m 296 254 l 270 73 q 316 78 345 102 q 373 127 373 159 q 373 212 296 254 z"},"?":{"x_min":0,"x_max":354,"ha":354,"o":"m 88 554 l 102 653 q 161 691 214 691 q 280 691 320 649 q 360 606 360 537 q 360 504 345 469 q 331 434 267 366 q 204 298 183 253 q 162 208 157 166 l 102 166 q 102 223 122 283 q 143 342 198 409 q 254 476 263 497 q 273 518 273 535 q 273 569 253 589 q 232 610 199 610 q 149 610 88 554 z m 60 44 q 60 68 77 85 q 94 102 118 102 q 142 102 159 85 q 176 68 176 44 q 176 20 159 3 q 142 -14 118 -14 q 94 -14 77 3 q 60 20 60 44 z"},"<":{"x_min":0,"x_max":584,"ha":584,"o":"m 70 313 l 70 395 l 544 597 l 544 510 l 168 354 l 544 198 l 544 111 z"},"'":{"x_min":0,"x_max":188,"ha":188,"o":"m 86 716 l 182 716 l 182 599 l 159 462 l 109 462 l 86 599 z"},"=":{"x_min":0,"x_max":584,"ha":584,"o":"m 71 503 l 543 503 l 543 421 l 71 421 z m 71 285 l 543 285 l 543 203 l 71 203 z"},"a":{"x_min":0,"x_max":469,"ha":469,"o":"m 446 449 l 383 0 l 298 0 l 306 52 l 304 54 q 245 -9 183 -9 q 122 -9 78 43 q 35 95 35 169 q 35 297 115 380 q 196 463 340 463 q 398 463 446 449 z m 316 130 l 353 389 q 339 390 327 390 q 227 390 174 326 q 122 263 122 184 q 122 130 147 95 q 172 61 211 61 q 242 61 278 92 q 315 122 316 130 z"},"L":{"x_min":0,"x_max":417,"ha":417,"o":"m 221 682 l 132 76 l 412 76 l 401 0 l 35 0 l 131 682 z"},"3":{"x_min":0,"x_max":521,"ha":521,"o":"m 129 567 l 142 661 q 211 691 283 691 q 366 691 416 643 q 466 594 466 514 q 466 400 333 351 q 425 312 425 197 q 425 117 363 54 q 300 -9 188 -9 q 108 -9 24 29 l 36 110 q 111 72 184 72 q 250 72 291 106 q 331 141 331 197 q 331 252 294 283 q 257 315 207 311 l 218 392 q 292 397 332 433 q 372 469 372 513 q 372 557 343 583 q 313 610 265 610 q 195 610 129 567 z"},";":{"x_min":0,"x_max":198,"ha":198,"o":"m 72 405 q 72 429 89 446 q 106 463 130 463 q 154 463 171 446 q 188 429 188 405 q 188 381 171 364 q 154 347 130 347 q 106 347 89 364 q 72 381 72 405 z m -10 -144 l -4 -100 q 62 -79 62 -14 q 23 3 23 37 q 23 63 41 80 q 58 96 86 96 q 113 96 131 73 q 149 51 149 17 q 149 -38 106 -83 q 64 -127 -10 -144 z"},"J":{"x_min":0,"x_max":240,"ha":240,"o":"m 232 682 l 129 -50 q 104 -230 -47 -230 q -79 -230 -112 -224 l -133 -140 q -96 -148 -67 -148 q -16 -148 8 -123 q 32 -98 40 -44 l 142 682 z"},"V":{"x_min":0,"x_max":510,"ha":510,"o":"m 565 682 l 232 -6 l 197 -6 l 64 682 l 152 682 l 243 206 l 471 682 z"},"\"":{"x_min":0,"x_max":354,"ha":354,"o":"m 248 716 l 344 716 l 344 599 l 321 462 l 271 462 l 248 599 z m 86 716 l 182 716 l 182 599 l 159 462 l 109 462 l 86 599 z"},"7":{"x_min":0,"x_max":521,"ha":521,"o":"m 528 682 l 209 -9 l 116 -9 l 396 598 l 121 598 l 133 682 z"},"S":{"x_min":0,"x_max":458,"ha":458,"o":"m 439 664 l 426 571 q 371 607 306 607 q 251 607 219 579 q 186 550 186 504 q 186 481 202 456 q 217 430 293 369 q 369 309 393 263 q 417 217 417 171 q 417 98 362 44 q 307 -9 215 -9 q 133 -9 50 40 l 64 140 q 157 75 224 75 q 260 75 293 99 q 325 123 325 163 q 325 189 309 217 q 292 245 217 307 q 141 369 117 414 q 94 460 94 505 q 94 584 160 637 q 225 691 314 691 q 376 691 439 664 z"},"}":{"x_min":0,"x_max":333,"ha":333,"o":"m 305 299 l 305 219 q 252 219 228 183 q 204 147 204 56 l 204 -32 q 204 -127 170 -169 q 136 -210 62 -210 l 23 -210 l 23 -134 l 38 -134 q 92 -134 107 -114 q 123 -95 123 -33 l 123 39 q 123 142 146 189 q 169 236 224 259 q 169 282 146 329 q 123 376 123 479 l 123 551 q 123 613 107 632 q 92 652 38 652 l 23 652 l 23 728 l 62 728 q 136 728 170 687 q 204 646 204 550 l 204 462 q 204 371 228 335 q 252 299 305 299 z"},"Z":{"x_min":0,"x_max":583,"ha":583,"o":"m 647 682 l 150 85 l 554 85 l 542 0 l -32 0 l 463 597 l 75 597 l 87 682 z"},"x":{"x_min":0,"x_max":427,"ha":427,"o":"m 443 449 l 262 227 l 376 0 l 285 0 l 203 168 l 73 0 l -31 0 l 165 238 l 59 449 l 150 449 l 221 298 l 338 449 z"},")":{"x_min":0,"x_max":292,"ha":292,"o":"m -7 -230 l -55 -230 q -9 -175 48 -58 q 105 60 125 186 q 145 312 145 381 q 145 554 83 691 l 125 691 q 170 605 198 501 q 226 396 226 309 q 226 176 172 50 q 119 -76 -7 -230 z"},"&":{"x_min":0,"x_max":688,"ha":688,"o":"m 565 343 l 653 343 q 592 194 514 119 q 573 63 637 63 q 651 63 659 66 l 626 -5 q 618 -9 602 -9 q 569 -9 528 12 q 486 33 456 66 q 355 -9 245 -9 q 155 -9 103 45 q 51 98 51 182 q 51 240 93 296 q 136 351 210 384 q 172 458 172 528 q 172 597 218 644 q 264 691 331 691 q 386 691 425 651 q 464 610 464 552 q 464 438 319 356 q 360 284 456 172 q 525 242 565 343 z m 281 423 q 326 446 352 480 q 377 514 377 547 q 377 577 361 596 q 344 615 318 615 q 291 615 272 589 q 253 563 253 525 q 253 481 281 423 z m 249 314 q 143 255 143 181 q 143 130 177 98 q 212 65 266 65 q 325 65 398 118 q 305 224 249 314 z"},"_":{"x_min":0,"x_max":500,"ha":500,"o":"m -6 -75 l 506 -75 l 506 -125 l -6 -125 z"},"v":{"x_min":0,"x_max":375,"ha":375,"o":"m 411 449 l 180 -9 l 138 -9 l 36 449 l 120 449 l 181 164 l 325 449 z"},"O":{"x_min":0,"x_max":656,"ha":656,"o":"m 382 691 q 490 691 556 612 q 623 533 623 405 q 623 227 526 109 q 429 -9 294 -9 q 188 -9 119 72 q 51 152 51 279 q 51 437 144 564 q 237 691 382 691 z m 296 73 q 391 73 461 175 q 531 277 531 421 q 531 509 490 559 q 450 609 381 609 q 275 609 209 504 q 143 398 143 266 q 143 177 185 125 q 226 73 296 73 z"},"(":{"x_min":0,"x_max":292,"ha":292,"o":"m 286 691 l 334 691 q 288 636 231 519 q 173 401 154 275 q 134 148 134 80 q 134 -93 196 -230 l 154 -230 q 108 -144 81 -40 q 53 64 53 152 q 53 285 107 411 q 160 537 286 691 z"},"C":{"x_min":0,"x_max":552,"ha":552,"o":"m 580 691 l 562 605 l 512 605 q 335 605 241 510 q 146 416 146 281 q 146 188 195 133 q 244 77 325 77 q 367 77 424 100 q 481 123 529 161 l 514 51 q 408 -9 312 -9 q 196 -9 123 71 q 49 150 49 275 q 49 458 177 575 q 304 691 515 691 z"},"W":{"x_min":0,"x_max":927,"ha":927,"o":"m 986 682 l 656 -6 l 621 -6 l 489 478 l 257 -6 l 221 -6 l 60 682 l 146 682 l 259 199 l 489 682 l 524 682 l 657 191 l 891 682 z"},"A":{"x_min":0,"x_max":521,"ha":521,"o":"m 352 686 l 485 0 l 401 0 l 360 214 l 146 214 l 56 0 l -35 0 l 266 686 z m 176 286 l 346 286 l 294 566 z"},"f":{"x_min":0,"x_max":271,"ha":271,"o":"m 287 449 l 276 374 l 185 374 l 113 -189 l 30 -189 l 102 374 l 30 374 l 41 449 l 112 449 q 120 565 177 628 q 233 691 328 691 q 378 691 437 670 l 425 586 q 379 611 337 611 q 211 611 196 449 z"},"Q":{"x_min":0,"x_max":656,"ha":656,"o":"m 623 -15 l 638 -15 q 633 -97 590 -146 q 546 -195 474 -195 q 398 -195 338 -146 q 278 -96 248 0 q 154 20 102 97 q 51 175 51 291 q 51 439 143 565 q 236 691 379 691 q 492 691 558 614 q 623 538 623 404 q 623 253 550 143 q 477 32 349 0 q 366 -54 405 -83 q 445 -113 493 -113 q 532 -113 569 -88 q 606 -63 623 -15 z m 302 82 q 395 82 463 179 q 531 275 531 416 q 531 508 492 559 q 453 609 382 609 q 273 609 208 501 q 143 393 143 269 q 143 178 184 130 q 225 82 302 82 z"},"w":{"x_min":0,"x_max":615,"ha":615,"o":"m 647 449 l 416 -9 l 376 -9 l 316 285 l 164 -9 l 125 -9 l 32 449 l 115 449 l 171 147 l 317 449 l 359 449 l 415 147 l 564 449 z"},"-":{"x_min":0,"x_max":250,"ha":250,"o":"m 250 265 l 238 180 l 0 180 l 12 265 z"},"E":{"x_min":0,"x_max":510,"ha":510,"o":"m 498 682 l 487 601 l 214 601 l 184 387 l 425 387 l 414 306 l 172 306 l 139 81 l 498 81 l 486 0 l 38 0 l 137 682 z"},"s":{"x_min":0,"x_max":354,"ha":354,"o":"m 323 416 l 323 327 q 246 386 188 386 q 162 386 145 372 q 127 358 127 339 q 127 326 138 312 q 149 297 207 258 q 266 219 286 187 q 306 154 306 120 q 306 61 267 23 q 228 -14 167 -14 q 92 -14 11 45 l 26 127 q 110 60 164 60 q 189 60 206 74 q 222 88 222 110 q 222 126 210 143 q 198 160 141 200 q 83 240 64 271 q 46 302 46 334 q 46 392 84 427 q 123 463 187 463 q 254 463 323 416 z"},">":{"x_min":0,"x_max":584,"ha":584,"o":"m 544 313 l 70 111 l 70 198 l 446 354 l 70 510 l 70 597 l 544 395 z"},"l":{"x_min":0,"x_max":188,"ha":188,"o":"m 204 682 l 108 0 l 23 0 l 119 682 z"},"8":{"x_min":0,"x_max":521,"ha":521,"o":"m 376 356 q 466 318 466 211 q 466 119 398 55 q 331 -9 232 -9 q 146 -9 93 43 q 40 96 40 180 q 40 323 186 367 q 109 413 109 501 q 109 579 167 635 q 226 691 307 691 q 391 691 441 643 q 492 595 492 516 q 492 462 462 419 q 431 376 376 356 z m 291 399 q 336 399 370 433 q 403 468 403 515 q 403 557 377 583 q 351 610 310 610 q 264 610 231 576 q 198 542 198 495 q 198 452 224 426 q 250 399 291 399 z m 238 72 q 295 72 336 113 q 377 153 377 209 q 377 260 347 289 q 317 318 264 318 q 210 318 169 276 q 129 234 129 179 q 129 133 160 102 q 191 72 238 72 z"},"\\":{"x_min":0,"x_max":281,"ha":281,"o":"m 279 -9 l 209 -9 l 13 691 l 83 691 z"},"e":{"x_min":0,"x_max":438,"ha":438,"o":"m 388 117 l 376 36 q 308 -14 226 -14 q 141 -14 90 45 q 38 104 38 203 q 38 313 100 388 q 162 463 251 463 q 319 463 365 410 q 410 358 410 275 q 410 254 407 233 l 127 233 q 123 210 123 190 q 123 128 157 92 q 191 56 242 56 q 305 56 388 117 z m 140 292 l 328 292 q 328 339 307 366 q 286 393 247 393 q 174 393 140 292 z"},"b":{"x_min":0,"x_max":469,"ha":469,"o":"m 210 682 l 174 413 q 223 463 283 463 q 353 463 397 406 q 441 349 441 258 q 441 139 366 62 q 291 -14 149 -14 q 79 -14 30 -7 l 123 682 z m 122 56 l 169 56 q 255 56 304 111 q 354 167 354 260 q 354 321 328 355 q 302 389 257 389 q 228 389 196 372 q 165 355 161 332 z"},"%":{"x_min":0,"x_max":708,"ha":708,"o":"m 210 691 q 272 691 317 647 q 362 603 362 539 q 362 478 316 433 q 271 387 210 387 q 147 387 103 432 q 58 478 58 539 q 58 603 102 647 q 146 691 210 691 z m 210 460 q 243 460 266 483 q 289 507 289 539 q 289 572 266 595 q 243 618 210 618 q 177 618 154 595 q 131 573 131 539 q 131 508 155 484 q 179 460 210 460 z m 631 691 l 183 -9 l 107 -9 l 556 691 z m 528 296 q 591 296 635 252 q 680 208 680 144 q 680 83 635 38 q 589 -8 528 -8 q 465 -8 420 37 q 376 83 376 144 q 376 208 420 252 q 464 296 528 296 z m 528 65 q 561 65 584 88 q 607 112 607 144 q 607 177 584 200 q 561 223 528 223 q 495 223 472 200 q 449 178 449 144 q 449 113 473 89 q 497 65 528 65 z"},"m":{"x_min":0,"x_max":740,"ha":740,"o":"m 171 449 l 159 371 q 238 456 316 456 q 403 456 418 355 q 500 456 586 456 q 634 456 663 423 q 692 391 692 332 q 692 313 689 291 l 648 0 l 563 0 l 605 295 q 607 310 607 323 q 607 389 559 389 q 547 389 532 384 q 518 379 500 367 q 481 355 450 325 q 419 294 418 285 l 377 0 l 292 0 l 332 284 q 335 305 335 322 q 335 389 282 389 q 249 389 198 342 q 148 295 147 285 l 107 0 l 22 0 l 86 449 z"},"#":{"x_min":0,"x_max":584,"ha":584,"o":"m 2 425 l 2 485 l 161 485 l 203 682 l 262 682 l 220 485 l 426 485 l 467 682 l 527 682 l 485 485 l 582 485 l 582 425 l 473 425 l 436 244 l 582 244 l 582 184 l 424 184 l 383 -11 l 323 -11 l 365 184 l 158 184 l 117 -11 l 57 -11 l 98 184 l 2 184 l 2 244 l 111 244 l 149 425 z m 414 425 l 208 425 l 170 244 l 377 244 z"},",":{"x_min":0,"x_max":198,"ha":198,"o":"m -24 -144 l -18 -100 q 48 -79 48 -14 q 9 3 9 37 q 9 63 27 80 q 44 96 72 96 q 99 96 117 73 q 135 51 135 17 q 135 -38 92 -83 q 50 -127 -24 -144 z"},"n":{"x_min":0,"x_max":469,"ha":469,"o":"m 178 449 l 167 370 l 169 368 q 241 456 318 456 q 370 456 399 418 q 428 379 428 319 q 428 302 425 283 l 382 0 l 298 0 l 339 286 q 341 301 341 314 q 341 349 327 368 q 312 386 290 386 q 277 386 261 380 q 246 374 228 360 q 209 347 183 320 q 156 293 155 286 l 114 0 l 30 0 l 93 449 z"},"h":{"x_min":0,"x_max":469,"ha":469,"o":"m 202 682 l 159 377 l 161 375 q 237 463 317 463 q 366 463 394 429 q 421 396 421 339 q 421 323 419 306 l 376 0 l 291 0 l 334 311 q 335 323 335 333 q 335 399 283 399 q 245 399 197 350 q 148 301 147 292 l 106 0 l 21 0 l 117 682 z"},"z":{"x_min":0,"x_max":458,"ha":458,"o":"m 447 449 l 149 75 l 410 75 l 394 0 l -13 0 l 280 374 l 53 374 l 63 449 z"},"B":{"x_min":0,"x_max":510,"ha":510,"o":"m 134 682 l 234 682 q 339 682 395 636 q 450 589 450 509 q 450 420 356 374 q 497 325 497 191 q 497 106 429 53 q 360 0 251 0 l 39 0 z m 213 604 l 186 409 l 235 409 q 291 409 324 437 q 358 465 358 511 q 358 605 241 605 q 228 605 213 604 z m 175 333 l 139 76 l 242 76 q 321 76 363 107 q 405 138 405 195 q 405 253 356 293 q 308 333 241 333 z"},"K":{"x_min":0,"x_max":563,"ha":563,"o":"m 573 682 l 259 367 l 564 0 l 457 0 l 176 357 l 126 0 l 34 0 l 130 682 l 222 682 l 177 390 l 179 388 l 469 682 z"},"R":{"x_min":0,"x_max":531,"ha":531,"o":"m 132 682 l 255 682 q 390 682 438 628 q 487 575 487 497 q 487 437 450 392 q 414 348 347 330 q 377 311 404 255 l 526 0 l 428 0 l 350 162 q 313 239 287 270 q 261 301 208 301 l 172 301 l 130 0 l 36 0 z m 214 601 l 184 382 l 232 382 q 310 382 350 414 q 390 447 390 502 q 390 601 267 601 z"},"T":{"x_min":0,"x_max":510,"ha":510,"o":"m 557 682 l 545 597 l 353 597 l 269 0 l 175 0 l 259 597 l 67 597 l 79 682 z"},"P":{"x_min":0,"x_max":448,"ha":448,"o":"m 123 682 l 240 682 q 346 682 403 633 q 461 584 461 489 q 461 410 404 349 q 347 288 243 288 l 161 288 l 121 0 l 27 0 z m 205 601 l 173 369 l 239 369 q 300 369 335 405 q 369 440 369 492 q 369 542 337 571 q 305 601 245 601 z"},"|":{"x_min":0,"x_max":260,"ha":260,"o":"m 108 -230 l 108 682 l 184 682 l 184 -230 z"},"t":{"x_min":0,"x_max":281,"ha":281,"o":"m 285 449 l 276 383 l 186 383 l 143 137 q 140 119 140 106 q 140 62 187 62 q 222 62 269 89 l 264 6 q 217 -14 171 -14 q 116 -14 84 14 q 52 42 52 88 q 52 99 54 111 l 101 383 l 22 383 l 32 449 l 114 449 l 131 541 l 215 541 l 199 449 z"},"M":{"x_min":0,"x_max":813,"ha":813,"o":"m 743 682 l 743 0 l 653 0 l 652 520 l 377 0 l 257 522 l 89 0 l -1 0 l 224 682 l 302 682 l 408 220 l 653 682 z"},"g":{"x_min":0,"x_max":427,"ha":427,"o":"m 445 449 l 436 383 l 349 383 q 379 341 379 294 q 379 240 355 199 q 331 158 296 141 q 261 125 206 115 q 150 104 136 94 q 121 84 121 71 q 121 61 134 52 q 146 43 225 24 q 304 5 336 -27 q 367 -59 367 -102 q 367 -157 315 -193 q 264 -230 184 -230 q 99 -230 44 -197 q -11 -164 -11 -114 q -11 -49 118 -21 q 40 8 40 58 q 40 84 64 107 q 88 129 129 141 q 48 180 48 270 q 48 346 97 397 q 146 449 215 449 z m 210 185 q 249 185 273 217 q 298 248 298 290 q 298 330 275 355 q 252 380 218 380 q 184 380 156 348 q 129 316 129 276 q 129 236 152 211 q 175 185 210 185 z m 191 -166 q 234 -166 260 -150 q 286 -135 286 -110 q 286 -85 244 -66 q 201 -46 186 -46 q 167 -46 118 -66 q 70 -86 70 -112 q 70 -137 102 -151 q 135 -166 191 -166 z"},"j":{"x_min":0,"x_max":188,"ha":188,"o":"m 143 639 q 163 639 177 625 q 192 610 192 590 q 192 570 177 555 q 163 541 143 541 q 123 541 109 555 q 94 570 94 590 q 94 610 109 625 q 123 639 143 639 z m 20 -67 l 86 449 l 171 449 l 102 -91 q 93 -159 52 -194 q 11 -230 -53 -230 q -81 -230 -103 -221 l -92 -146 q -71 -151 -54 -151 q 9 -151 20 -67 z"},"i":{"x_min":0,"x_max":188,"ha":188,"o":"m 95 590 q 95 610 110 625 q 124 639 144 639 q 164 639 178 625 q 193 610 193 590 q 193 570 178 555 q 164 541 144 541 q 124 541 110 555 q 95 570 95 590 z m 171 449 l 108 0 l 23 0 l 86 449 z"},"y":{"x_min":0,"x_max":375,"ha":375,"o":"m 400 449 l 78 -230 l -12 -230 l 110 27 l 23 449 l 108 449 l 170 140 l 311 449 z"},"@":{"x_min":0,"x_max":1010,"ha":1010,"o":"m 891 9 l 981 9 q 848 -210 548 -210 q 318 -210 186 -93 q 54 25 54 229 q 54 431 183 580 q 311 729 537 729 q 719 729 837 621 q 956 513 956 348 q 956 214 865 106 q 774 -2 664 -2 q 567 -2 567 80 q 496 -1 419 -1 q 342 -1 291 62 q 240 124 240 220 q 240 337 320 433 q 399 529 494 529 q 586 529 641 439 l 658 515 l 746 515 l 664 138 q 661 126 661 116 q 661 78 696 78 q 742 78 812 155 q 883 232 883 349 q 883 481 783 570 q 684 658 533 658 q 358 658 243 538 q 127 418 127 237 q 127 60 238 -39 q 349 -138 549 -138 q 784 -138 891 9 z m 500 459 q 437 459 384 383 q 332 307 332 213 q 332 149 362 109 q 392 70 439 70 q 503 70 558 147 q 613 224 613 316 q 613 381 582 420 q 551 459 500 459 z"},".":{"x_min":0,"x_max":198,"ha":198,"o":"m 16 44 q 16 68 33 85 q 50 102 74 102 q 98 102 115 85 q 132 68 132 44 q 132 20 115 3 q 98 -14 74 -14 q 50 -14 33 3 q 16 20 16 44 z"},"p":{"x_min":0,"x_max":490,"ha":490,"o":"m 209 563 l 193 449 q 227 463 269 463 q 348 463 402 403 q 455 344 455 254 q 455 147 383 66 q 310 -14 184 -14 l 128 -14 l 98 -230 l 13 -230 l 93 338 q 65 318 43 287 q 21 256 18 256 q 14 256 14 262 q 14 285 40 327 q 65 369 101 398 l 124 563 z m 184 386 l 138 58 l 179 58 q 266 58 317 116 q 368 175 368 254 q 368 322 332 361 q 296 399 240 399 q 210 399 184 386 z"},"X":{"x_min":0,"x_max":667,"ha":667,"o":"m 703 682 l 411 351 l 633 0 l 526 0 l 349 281 l 105 0 l -18 0 l 299 361 l 97 682 l 200 682 l 362 431 l 584 682 z"},"*":{"x_min":0,"x_max":448,"ha":448,"o":"m 291 665 l 266 538 q 280 535 286 528 l 370 608 q 395 633 416 633 q 430 633 439 623 q 448 612 448 597 q 448 570 416 558 l 292 513 q 294 507 294 500 q 294 495 292 490 l 393 453 q 448 433 448 403 q 448 392 438 381 q 428 370 416 370 q 394 370 358 405 l 286 476 q 276 466 266 466 l 289 343 q 291 332 291 322 q 291 278 258 278 q 224 278 224 325 q 224 338 227 353 l 251 466 q 242 466 232 476 l 154 404 q 118 371 96 371 q 85 371 75 381 q 66 392 66 404 q 66 436 120 454 l 225 490 q 224 496 224 502 q 224 508 225 513 l 112 555 q 68 571 68 595 q 68 611 78 623 q 89 634 103 634 q 119 634 150 605 l 232 528 q 237 536 251 538 l 228 657 q 225 671 225 683 q 225 726 258 726 q 293 726 293 683 q 293 674 291 665 z"},"Y":{"x_min":0,"x_max":490,"ha":490,"o":"m 557 682 l 318 340 l 270 0 l 180 0 l 228 340 l 68 682 l 163 682 l 279 432 l 453 682 z"},"c":{"x_min":0,"x_max":385,"ha":385,"o":"m 357 100 l 347 18 q 289 -14 222 -14 q 132 -14 78 42 q 24 99 24 193 q 24 307 106 385 q 188 463 315 463 q 347 463 392 455 l 381 380 q 349 387 316 387 q 228 387 169 331 q 111 274 111 198 q 111 135 144 98 q 177 62 234 62 q 294 62 357 100 z"},"!":{"x_min":0,"x_max":250,"ha":250,"o":"m 94 166 q 107 292 114 450 q 122 607 133 649 q 145 691 188 691 q 228 691 228 632 q 228 597 195 453 l 131 166 z m 42 44 q 42 68 59 85 q 76 102 100 102 q 124 102 141 85 q 158 68 158 44 q 158 20 141 3 q 124 -14 100 -14 q 76 -14 59 3 q 42 20 42 44 z"},"/":{"x_min":0,"x_max":281,"ha":281,"o":"m 28 -9 l 224 691 l 294 691 l 98 -9 z"},"[":{"x_min":0,"x_max":333,"ha":333,"o":"m 376 682 l 367 616 l 238 616 l 130 -155 l 258 -155 l 249 -221 l 38 -221 l 165 682 z"},"6":{"x_min":0,"x_max":521,"ha":521,"o":"m 414 682 l 218 396 l 220 394 q 250 417 308 417 q 381 417 425 370 q 469 324 469 246 q 469 146 397 69 q 325 -9 234 -9 q 150 -9 102 47 q 54 102 54 199 q 54 248 81 314 q 107 380 148 439 l 314 682 z m 236 76 q 292 76 336 125 q 380 175 380 239 q 380 282 354 309 q 328 336 288 336 q 229 336 186 292 q 143 248 143 189 q 143 139 169 108 q 195 76 236 76 z"},"r":{"x_min":0,"x_max":313,"ha":313,"o":"m 185 449 l 172 364 l 174 362 q 214 419 237 438 q 261 456 293 456 q 313 456 330 449 l 330 353 q 303 368 278 368 q 253 368 233 356 q 214 343 186 302 q 158 262 157 253 l 122 0 l 37 0 l 100 449 z"},"2":{"x_min":0,"x_max":521,"ha":521,"o":"m 119 547 l 132 644 q 210 691 286 691 q 360 691 406 646 q 451 601 451 528 q 451 454 386 352 q 322 250 183 84 l 443 84 l 431 0 l 17 0 q 216 244 290 356 q 364 469 364 521 q 364 561 338 583 q 313 606 268 606 q 199 606 119 547 z"},"{":{"x_min":0,"x_max":333,"ha":333,"o":"m 28 219 l 28 299 q 81 299 105 335 q 129 371 129 462 l 129 550 q 129 646 163 687 q 197 728 271 728 l 310 728 l 310 652 l 295 652 q 241 652 226 632 q 210 613 210 551 l 210 479 q 210 376 187 329 q 164 282 109 259 q 164 236 187 189 q 210 142 210 39 l 210 -33 q 210 -95 226 -114 q 241 -134 295 -134 l 310 -134 l 310 -210 l 271 -210 q 197 -210 163 -169 q 129 -127 129 -32 l 129 56 q 129 147 105 183 q 81 219 28 219 z"},"9":{"x_min":0,"x_max":521,"ha":521,"o":"m 129 -9 l 331 285 l 329 287 q 288 263 242 263 q 170 263 124 309 q 78 354 78 425 q 78 533 149 612 q 221 691 317 691 q 394 691 444 635 q 494 579 494 492 q 494 427 471 368 q 447 310 397 236 l 229 -9 z m 264 344 q 316 344 359 389 q 402 433 402 488 q 402 541 377 572 q 352 603 309 603 q 254 603 212 554 q 170 505 170 441 q 170 344 264 344 z"}," ":{"x_min":0,"x_max":278,"ha":278,"o":""},"I":{"x_min":0,"x_max":240,"ha":240,"o":"m 229 682 l 133 0 l 39 0 l 135 682 z"},"H":{"x_min":0,"x_max":698,"ha":698,"o":"m 687 682 l 591 0 l 497 0 l 540 302 l 171 302 l 129 0 l 35 0 l 131 682 l 224 682 l 183 387 l 552 387 l 593 682 z"},"4":{"x_min":0,"x_max":521,"ha":521,"o":"m 455 691 l 392 283 l 490 283 l 480 210 l 379 210 l 346 0 l 259 0 l 295 210 l 39 210 l 39 249 l 401 691 z m 154 283 l 306 283 l 346 520 z"},"~":{"x_min":0,"x_max":584,"ha":584,"o":"m 39 198 l 39 281 q 116 345 188 345 q 230 345 314 307 q 398 269 434 269 q 491 269 574 336 l 574 253 q 498 189 428 189 q 387 189 302 227 q 217 265 181 265 q 124 265 39 198 z"},"D":{"x_min":0,"x_max":656,"ha":656,"o":"m 39 0 l 136 682 l 217 682 q 406 682 512 591 q 617 500 617 340 q 617 186 524 93 q 432 0 261 0 z m 216 600 l 143 81 l 225 81 q 342 81 398 109 q 454 137 487 198 q 520 258 520 343 q 520 464 438 532 q 356 600 247 600 z"},"^":{"x_min":0,"x_max":469,"ha":469,"o":"m 133 291 l 43 291 l 216 682 l 287 682 l 460 291 l 371 291 l 251 583 z"},"0":{"x_min":0,"x_max":521,"ha":521,"o":"m 326 691 q 410 691 456 628 q 501 565 501 444 q 501 264 426 128 q 351 -9 231 -9 q 51 -9 51 234 q 51 404 125 547 q 198 691 326 691 z m 230 72 q 297 72 353 189 q 409 306 409 455 q 409 610 322 610 q 258 610 201 493 q 145 376 145 236 q 145 72 230 72 z"},"F":{"x_min":0,"x_max":417,"ha":417,"o":"m 455 682 l 444 601 l 207 601 l 177 387 l 395 387 l 383 306 l 165 306 l 122 0 l 31 0 l 130 682 z"},"`":{"x_min":0,"x_max":333,"ha":333,"o":"m 201 670 l 269 524 l 213 524 l 100 670 z"},"k":{"x_min":0,"x_max":458,"ha":458,"o":"m 204 682 l 143 252 l 333 449 l 441 449 l 235 237 l 455 0 l 347 0 l 140 228 l 108 0 l 24 0 l 119 682 z"},"u":{"x_min":0,"x_max":469,"ha":469,"o":"m 438 449 l 375 0 l 291 0 l 298 76 q 221 -7 150 -7 q 105 -7 73 26 q 42 58 42 118 q 42 135 44 153 l 86 449 l 171 449 l 129 153 q 127 138 127 125 q 127 58 177 58 q 229 58 312 157 l 354 449 z"},"]":{"x_min":0,"x_max":333,"ha":333,"o":"m -48 -221 l -39 -155 l 90 -155 l 198 616 l 70 616 l 79 682 l 290 682 l 163 -221 z"},"U":{"x_min":0,"x_max":635,"ha":635,"o":"m 640 682 l 581 261 q 562 128 490 60 q 417 -9 297 -9 q 190 -9 127 49 q 63 106 63 203 q 63 223 66 243 l 128 682 l 218 682 l 155 236 q 153 222 153 208 q 153 146 194 109 q 236 73 302 73 q 359 73 403 100 q 446 127 463 168 q 479 208 491 290 l 546 682 z"},"o":{"x_min":0,"x_max":448,"ha":448,"o":"m 251 463 q 327 463 372 409 q 418 356 418 267 q 418 144 356 65 q 295 -14 205 -14 q 126 -14 81 39 q 36 92 36 187 q 36 305 98 384 q 160 463 251 463 z m 251 396 q 199 396 161 331 q 123 267 123 178 q 123 125 146 92 q 168 59 202 59 q 255 59 293 120 q 331 180 331 272 q 331 329 309 362 q 287 396 251 396 z"},"N":{"x_min":0,"x_max":688,"ha":688,"o":"m 678 682 l 582 0 l 533 0 l 194 498 l 124 0 l 39 0 l 135 682 l 181 682 l 522 180 l 593 682 z"},"+":{"x_min":0,"x_max":584,"ha":584,"o":"m 266 589 l 348 589 l 348 394 l 543 394 l 543 312 l 348 312 l 348 117 l 266 117 l 266 312 l 71 312 l 71 394 l 266 394 z"},"G":{"x_min":0,"x_max":604,"ha":604,"o":"m 577 296 l 542 51 q 431 -9 322 -9 q 190 -9 113 77 q 35 164 35 291 q 35 453 157 572 q 279 691 503 691 q 547 691 621 682 l 610 600 q 529 609 489 609 q 321 609 227 514 q 132 420 132 294 q 132 196 187 135 q 242 73 329 73 q 394 73 460 106 l 476 224 l 379 224 l 389 296 z"},"q":{"x_min":0,"x_max":469,"ha":469,"o":"m 444 463 l 347 -230 l 262 -230 l 296 13 q 241 -14 203 -14 q 126 -14 79 42 q 31 98 31 188 q 31 306 114 384 q 197 463 349 463 z m 305 76 l 349 393 q 240 398 179 341 q 118 283 118 183 q 118 125 150 91 q 182 56 235 56 q 263 56 305 76 z"},"d":{"x_min":0,"x_max":469,"ha":469,"o":"m 478 682 l 382 0 q 333 -14 267 -14 q 153 -14 92 40 q 31 94 31 194 q 31 292 110 377 q 190 463 326 463 l 362 463 l 393 682 z m 306 58 l 352 392 l 330 392 q 235 392 177 334 q 118 276 118 196 q 118 129 157 93 q 195 56 267 56 q 293 56 306 58 z"},"1":{"x_min":0,"x_max":521,"ha":521,"o":"m 374 691 l 266 0 l 176 0 l 285 691 z"},"5":{"x_min":0,"x_max":521,"ha":521,"o":"m 477 682 l 462 598 l 266 598 l 239 428 q 331 423 383 369 q 434 315 434 230 q 434 125 363 58 q 291 -9 178 -9 q 83 -9 15 42 l 46 121 q 110 72 183 72 q 252 72 296 116 q 340 160 340 229 q 340 283 302 315 q 263 347 198 347 q 174 347 138 339 l 199 682 z"}}}
